<mxfile host="65bd71144e">
    <diagram id="qsco3S4pm29JMWFJxhhS" name="Seite-1">
        <mxGraphModel dx="793" dy="830" grid="1" gridSize="10" guides="1" tooltips="1" connect="1" arrows="1" fold="1" page="1" pageScale="1" pageWidth="1169" pageHeight="827" math="0" shadow="0">
            <root>
                <mxCell id="0"/>
                <mxCell id="1" parent="0"/>
                <mxCell id="dh9Q4JuQMypKx0E8WoeS-1" value="" style="ellipse;shape=cloud;whiteSpace=wrap;html=1;" parent="1" vertex="1">
                    <mxGeometry y="220" width="320" height="270" as="geometry"/>
                </mxCell>
                <mxCell id="dh9Q4JuQMypKx0E8WoeS-4" value="" style="edgeStyle=orthogonalEdgeStyle;rounded=0;orthogonalLoop=1;jettySize=auto;html=1;" parent="1" source="dh9Q4JuQMypKx0E8WoeS-2" target="dh9Q4JuQMypKx0E8WoeS-3" edge="1">
                    <mxGeometry relative="1" as="geometry"/>
                </mxCell>
                <mxCell id="dh9Q4JuQMypKx0E8WoeS-2" value="aci restic&lt;br&gt;(maintenance)" style="rounded=0;whiteSpace=wrap;html=1;" parent="1" vertex="1">
                    <mxGeometry x="100" y="290" width="120" height="60" as="geometry"/>
                </mxCell>
                <mxCell id="dh9Q4JuQMypKx0E8WoeS-3" value="azure storage" style="strokeWidth=2;html=1;shape=mxgraph.flowchart.database;whiteSpace=wrap;" parent="1" vertex="1">
                    <mxGeometry x="110" y="380" width="100" height="64" as="geometry"/>
                </mxCell>
                <mxCell id="dh9Q4JuQMypKx0E8WoeS-5" value="" style="verticalLabelPosition=bottom;html=1;verticalAlign=top;align=center;shape=mxgraph.floorplan.wall;fillColor=#000000;direction=south;" parent="1" vertex="1">
                    <mxGeometry x="360" y="220" width="10" height="280" as="geometry"/>
                </mxCell>
                <mxCell id="dh9Q4JuQMypKx0E8WoeS-7" value="" style="edgeStyle=orthogonalEdgeStyle;rounded=0;orthogonalLoop=1;jettySize=auto;html=1;entryX=1;entryY=0.5;entryDx=0;entryDy=0;entryPerimeter=0;" parent="1" source="dh9Q4JuQMypKx0E8WoeS-6" target="dh9Q4JuQMypKx0E8WoeS-3" edge="1">
                    <mxGeometry relative="1" as="geometry"/>
                </mxCell>
                <mxCell id="dh9Q4JuQMypKx0E8WoeS-6" value="restic&lt;br&gt;(backup)" style="rounded=0;whiteSpace=wrap;html=1;" parent="1" vertex="1">
                    <mxGeometry x="440" y="382" width="120" height="60" as="geometry"/>
                </mxCell>
                <mxCell id="dh9Q4JuQMypKx0E8WoeS-9" value="" style="edgeStyle=orthogonalEdgeStyle;rounded=0;orthogonalLoop=1;jettySize=auto;html=1;" parent="1" source="dh9Q4JuQMypKx0E8WoeS-8" target="dh9Q4JuQMypKx0E8WoeS-6" edge="1">
                    <mxGeometry relative="1" as="geometry"/>
                </mxCell>
                <mxCell id="dh9Q4JuQMypKx0E8WoeS-8" value="Folders from server" style="strokeWidth=2;html=1;shape=mxgraph.flowchart.database;whiteSpace=wrap;" parent="1" vertex="1">
                    <mxGeometry x="640" y="357" width="100" height="110" as="geometry"/>
                </mxCell>
                <mxCell id="dh9Q4JuQMypKx0E8WoeS-11" value="" style="edgeStyle=orthogonalEdgeStyle;rounded=0;orthogonalLoop=1;jettySize=auto;html=1;" parent="1" source="dh9Q4JuQMypKx0E8WoeS-10" target="dh9Q4JuQMypKx0E8WoeS-6" edge="1">
                    <mxGeometry relative="1" as="geometry"/>
                </mxCell>
                <mxCell id="dh9Q4JuQMypKx0E8WoeS-10" value="crontab&lt;br&gt;(trigger)" style="rounded=0;whiteSpace=wrap;html=1;" parent="1" vertex="1">
                    <mxGeometry x="440" y="290" width="120" height="60" as="geometry"/>
                </mxCell>
                <mxCell id="dh9Q4JuQMypKx0E8WoeS-12" value="" style="strokeWidth=2;html=1;shape=mxgraph.flowchart.annotation_2;align=left;labelPosition=right;pointerEvents=1;direction=north;rotation=-180;" parent="1" vertex="1">
                    <mxGeometry x="10" y="150" width="340" height="50" as="geometry"/>
                </mxCell>
                <mxCell id="dh9Q4JuQMypKx0E8WoeS-13" value="" style="shape=image;verticalLabelPosition=bottom;labelBackgroundColor=default;verticalAlign=top;aspect=fixed;imageAspect=0;image=https://i.pinimg.com/originals/28/ec/74/28ec7440a57536eebad2931517aa1cce.png;" parent="1" vertex="1">
                    <mxGeometry x="120" y="30" width="100" height="100" as="geometry"/>
                </mxCell>
                <mxCell id="dh9Q4JuQMypKx0E8WoeS-14" value="" style="strokeWidth=2;html=1;shape=mxgraph.flowchart.annotation_2;align=left;labelPosition=right;pointerEvents=1;direction=north;rotation=-180;" parent="1" vertex="1">
                    <mxGeometry x="375" y="150" width="210" height="50" as="geometry"/>
                </mxCell>
                <mxCell id="dh9Q4JuQMypKx0E8WoeS-15" value="" style="shape=image;verticalLabelPosition=bottom;labelBackgroundColor=default;verticalAlign=top;aspect=fixed;imageAspect=0;image=https://digitalilusion.com/static/img/docker-logo.png;" parent="1" vertex="1">
                    <mxGeometry x="416.5" y="16.5" width="127" height="127" as="geometry"/>
                </mxCell>
                <mxCell id="4" style="edgeStyle=none;html=1;entryX=0.5;entryY=1;entryDx=0;entryDy=0;entryPerimeter=0;" edge="1" parent="1" source="2" target="dh9Q4JuQMypKx0E8WoeS-3">
                    <mxGeometry relative="1" as="geometry"/>
                </mxCell>
                <mxCell id="2" value="" style="sketch=0;pointerEvents=1;shadow=0;dashed=0;html=1;strokeColor=none;fillColor=#505050;labelPosition=center;verticalLabelPosition=bottom;verticalAlign=top;outlineConnect=0;align=center;shape=mxgraph.office.devices.laptop;" vertex="1" parent="1">
                    <mxGeometry x="37.5" y="580" width="245" height="150" as="geometry"/>
                </mxCell>
                <mxCell id="5" value="" style="shape=image;verticalLabelPosition=bottom;labelBackgroundColor=#ffffff;verticalAlign=top;aspect=fixed;imageAspect=0;image=https://github.com/emuell/restic-browser/raw/master/frontend/src/assets/images/logo.png;" vertex="1" parent="1">
                    <mxGeometry x="80" y="610" width="160" height="20" as="geometry"/>
                </mxCell>
                <mxCell id="6" value="(restore single files)" style="text;html=1;strokeColor=none;fillColor=none;align=center;verticalAlign=middle;whiteSpace=wrap;rounded=0;" vertex="1" parent="1">
                    <mxGeometry x="80" y="640" width="160" height="30" as="geometry"/>
                </mxCell>
            </root>
        </mxGraphModel>
    </diagram>
</mxfile>